<svg xmlns="http://www.w3.org/2000/svg" viewBox="0 0 116.59 30"><defs><style>.cls-1{fill:#fff;}</style></defs><g id="Layer_2" data-name="Layer 2"><g id="Layer_1-2" data-name="Layer 1"><path class="cls-1" d="M91.49,7.22a1.07,1.07,0,0,1-1.51,0,1.07,1.07,0,0,1-.31-.76A1,1,0,0,1,90,5.71a1,1,0,0,1,.75-.31A1.06,1.06,0,0,1,91.8,6.46,1,1,0,0,1,91.49,7.22Zm-1.4-1.4a.85.85,0,0,0-.27.64.9.9,0,0,0,.27.66.88.88,0,0,0,.65.27.89.89,0,0,0,.65-.27.93.93,0,0,0,.26-.66.91.91,0,0,0-1.56-.64Zm.63.06a.89.89,0,0,1,.32,0,.29.29,0,0,1,.18.29.26.26,0,0,1-.12.24.49.49,0,0,1-.17,0,.26.26,0,0,1,.2.12.27.27,0,0,1,.07.18V7a.35.35,0,0,0,0,.06v0H91V7h0V6.89a.29.29,0,0,0-.12-.27.57.57,0,0,0-.22,0h-.17v.46h-.2V5.88Zm.22.18a.54.54,0,0,0-.25,0h-.18v.42h.19a.53.53,0,0,0,.2,0A.17.17,0,0,0,91,6.23.19.19,0,0,0,90.94,6.06Z"/><ellipse class="cls-1" cx="53.62" cy="7.34" rx="3.22" ry="3.13"/><ellipse class="cls-1" cx="86.39" cy="26.87" rx="3.22" ry="3.13"/><path class="cls-1" d="M.39,29.2V27.06a.77.77,0,0,1,.22-.54l7.8-8.37a18.74,18.74,0,0,0,2.46-3.36,5.43,5.43,0,0,0,.74-2.54,3.79,3.79,0,0,0-.85-2.56,3,3,0,0,0-2.39-1A3.09,3.09,0,0,0,5.76,9.86a4.62,4.62,0,0,0-.86,2.38.8.8,0,0,1-.79.73H0l0-.11A7.5,7.5,0,0,1,2.21,7.19,8.24,8.24,0,0,1,8.37,4.87a8.64,8.64,0,0,1,6,2,6.81,6.81,0,0,1,2.19,5.31,7.52,7.52,0,0,1-1.23,4.15,40,40,0,0,1-4.09,5L6.86,26.1l0,.09h5.7a.8.8,0,0,0,.8-.73l.08-1a.79.79,0,0,1,.79-.72h2.25a.79.79,0,0,1,.8.79V29.2a.8.8,0,0,1-.8.8H1.19A.8.8,0,0,1,.39,29.2Z"/><path class="cls-1" d="M48.31,8.31l-.79.1a.8.8,0,0,0-.68.6L42.09,29.38a.79.79,0,0,1-.77.62H37.94a.79.79,0,0,1-.76-.59L32.8,13.65h-.11L28.31,29.41a.79.79,0,0,1-.76.59H24.17a.79.79,0,0,1-.77-.62L18.61,9a.8.8,0,0,0-.67-.61l-.78-.09a.8.8,0,0,1-.7-.79V6a.8.8,0,0,1,.8-.8h7.53a.79.79,0,0,1,.79.8V7.55a.79.79,0,0,1-.66.78l-.79.14a.8.8,0,0,0-.64.95l2.67,12.77h.1L30.75,5.81a.79.79,0,0,1,.76-.59H34a.8.8,0,0,1,.77.59L39.24,22.2h.11L42,9.42a.79.79,0,0,0-.64-.95l-.79-.14a.79.79,0,0,1-.66-.78V6a.79.79,0,0,1,.79-.8h7.52A.8.8,0,0,1,49,6v1.5A.8.8,0,0,1,48.31,8.31Z"/><path class="cls-1" d="M50.37,26.88l1.14-.24a.79.79,0,0,0,.63-.78V15.75A.79.79,0,0,0,51.5,15l-1.37-.26a.8.8,0,0,1-.64-.78V12.38a.79.79,0,0,1,.79-.79h6a.79.79,0,0,1,.8.79V25.87a.79.79,0,0,0,.63.77l1.12.24a.8.8,0,0,1,.63.78V29.2a.8.8,0,0,1-.79.8H50.54a.8.8,0,0,1-.8-.8V27.66A.8.8,0,0,1,50.37,26.88Z"/><path class="cls-1" d="M61.48,26.88l1.13-.24a.79.79,0,0,0,.62-.77V15.75a.79.79,0,0,0-.64-.78l-1.35-.26a.8.8,0,0,1-.64-.78V12.38a.79.79,0,0,1,.79-.79h5.74a.79.79,0,0,1,.79.73h0a.8.8,0,0,0,1.34.51,6.11,6.11,0,0,1,1.09-.8,5.87,5.87,0,0,1,3-.78A5.51,5.51,0,0,1,77.71,13q1.58,1.75,1.57,5.49v7.38a.79.79,0,0,0,.63.77l1.12.24a.8.8,0,0,1,.63.78V29.2a.8.8,0,0,1-.8.8H73a.79.79,0,0,1-.79-.8V27.65a.8.8,0,0,1,.61-.78l.9-.22a.78.78,0,0,0,.61-.77V18.51a3.74,3.74,0,0,0-.75-2.63,3,3,0,0,0-2.26-.77,3.78,3.78,0,0,0-1.77.4,3.7,3.7,0,0,0-1.12.89.81.81,0,0,0-.19.52v9a.8.8,0,0,0,.6.77l.81.21a.79.79,0,0,1,.6.77V29.2a.8.8,0,0,1-.8.8H61.65a.8.8,0,0,1-.8-.8V27.66A.8.8,0,0,1,61.48,26.88Z"/><path class="cls-1" d="M87.84,21.46H84.47a.8.8,0,0,1-.8-.8V6a.8.8,0,0,1,.8-.8h3.37a.8.8,0,0,1,.8.8V20.66A.8.8,0,0,1,87.84,21.46Z"/><path class="cls-1" d="M100.32,19.76v-.05a.25.25,0,0,1,0-.08v0s0-.06,0-.09v0a.61.61,0,0,1,0-.11h0a.36.36,0,0,1,0-.11v0l0-.08,0,0a.3.3,0,0,0,0-.08l0,0a.35.35,0,0,1,0-.08l0,0,.07-.11,0,0,.07-.08,0,0,.06-.07,0,0a.23.23,0,0,1,.07-.07l0,0,.09-.09h0l.12-.11,0,0,.09-.07,0,0,.09-.06.06,0,.1-.07,0,0,.16-.1h0l.14-.09,0,0,.12-.06.06,0,.12-.06.06,0,.14-.07,0,0,.18-.1.06,0,.14-.07.07,0,.13-.06.07,0,.14-.07.06,0,.21-.09h0l.21-.09.07,0,.15-.07.08,0,.15-.06.07,0,.17-.07.06,0,.23-.09.06,0,.18-.08.08,0,.16-.06.08,0,.17-.07.07,0,.22-.08h0l.25-.1.06,0,.18-.07.15-.06.06,0,.3-.12.09,0,.25-.1h0l.21-.08.1,0,.16-.07.09,0,.18-.07.09,0,.22-.09,0,0,.25-.1.08,0,.18-.07.09,0,.17-.07.1,0,.18-.07.08,0,.25-.11,0,0,.22-.09.08,0a27.46,27.46,0,0,0,2.61-1.27.08.08,0,0,1,.09.14L110.75,15h0a.49.49,0,0,0,.22.86l3.79.58a.09.09,0,0,1,.06.12,2.65,2.65,0,0,1-.27.53l0,0a.86.86,0,0,0-.07.1l-.06.08-.13.17,0,.05-.2.22,0,.05-.16.16-.08.07-.15.13-.09.08-.15.12-.11.09-.15.11-.11.08-.16.12-.11.07-.19.13-.08.05-.29.18,0,0-.26.15-.1.06-.19.11-.12.06-.18.1-.12.06-.18.09-.12.06-.18.09-.11.06-.2.09-.09,0-.25.12h0l-.28.12-.08,0-.19.08-.1,0-.16.07-.1,0-.15.06-.1,0-.13.05-.1,0-.13.05-.08,0-.14,0,0,0-.18.06,0,0-.11,0-.06,0-.08,0,0,0-.06,0h-.06l-.09,0h0l-6-.78-.68-.08h0l-.25,0a.07.07,0,0,1-.07-.05,1.67,1.67,0,0,1-.08-.3h0a.49.49,0,0,1,0-.12v-.13Z"/><path class="cls-1" d="M100.09,25a.75.75,0,1,0,1.3.73.75.75,0,0,0-.85-1.08.79.79,0,0,0-.31.17A.62.62,0,0,0,100.09,25Z"/><circle class="cls-1" cx="102.56" cy="26.32" r="0.88"/><circle class="cls-1" cx="103.9" cy="23.82" r="0.43"/><circle class="cls-1" cx="104.12" cy="25.27" r="0.66"/><circle class="cls-1" cx="102.43" cy="24.35" r="0.68"/><circle class="cls-1" cx="101.66" cy="28.76" r="1.24"/><circle class="cls-1" cx="104.6" cy="27.46" r="0.98"/><path class="cls-1" d="M97.33,11.26a2.77,2.77,0,0,1,.48-.49,3.79,3.79,0,0,1,.68-.44l.21-.1,0,0h0l0,0,0,0,.05,0h0l.06,0,0,0,.08,0h0l.13,0h0c2.29-.81,9.54-3,14.21-7h0c.26-.22.51-.45.74-.67h0A11.77,11.77,0,0,0,116.06.15c.16-.25.56-.17.53.12-.08.87-.2,2-.32,3.21h0c0,.27,0,.55-.08.82v0l0,.32h0l0,.32V5c0,.21-.05.43-.07.64h0L116,6.3h0c0,.21,0,.4-.06.59v0l0,.26v0l0,.24v0l0,.24h0l0,.21V8l0,.2h0l0,.18v.05l0,.16h0l0,.13v0l0,.12h0v.21a1.49,1.49,0,0,1-.21.56,3.46,3.46,0,0,1-.61.71l-.16.14a8.79,8.79,0,0,1-1.87,1.18c-.73.39-1.35.69-2.19,1.07L110,13c-3.65,1.6-7.85,3.06-9.38,4A4.2,4.2,0,0,0,99,18.7a3.08,3.08,0,0,0-.23.66.89.89,0,0,0,0,.32c0,.09-.06-.15-.18-.58a1,1,0,0,0-.06-.22l0-.11c-.06-.24-.14-.52-.22-.82l0-.15c0-.1,0-.21-.08-.32l0-.16L98.06,17,98,16.65l0-.17-.09-.35-.14-.53c0-.17-.08-.35-.13-.52l-.06-.25c-.07-.31-.15-.61-.21-.89s-.12-.5-.16-.71S97,12.6,97,12.4v-.07a1.72,1.72,0,0,1,0-.2,1.58,1.58,0,0,1,.14-.49.54.54,0,0,1,.07-.13s0-.08.07-.13Z"/><path class="cls-1" d="M103.38,23c.66-.06,1.23.67,1.55,1.15a.49.49,0,0,1,.61-.25.5.5,0,0,1-.24,1c.08.17.15.35.22.53a.65.65,0,0,1,1,.68.65.65,0,0,1-.45.52,1,1,0,0,0,1.45.52c2.74-1,7.44-3,7.57-4.58,0-.49.46-5.3.46-5.58a.08.08,0,0,0-.16,0c-.16.32-.32.64-.51.95a1.18,1.18,0,0,0-.11.19l0,.07-.12.17-.06.08a1.83,1.83,0,0,1-.13.16l-.05.07c-.07.07-.13.15-.2.21l-.21.2C111.52,21.19,106.21,22.5,103.38,23Zm5,2.15a.45.45,0,0,1-.43.24.45.45,0,0,1-.36-.66.45.45,0,1,1,.79.42Zm-.86.53a.57.57,0,0,1,.31.57.56.56,0,0,1-.8.44.54.54,0,0,1-.31-.57A.56.56,0,0,1,107.53,25.7Zm-.59-1.44a.46.46,0,1,1-.43.82.46.46,0,0,1-.25-.45A.47.47,0,0,1,106.94,24.26Zm-.54-1a.29.29,0,0,1,.17.31.3.3,0,0,1-.43.23.32.32,0,0,1-.17-.31A.3.3,0,0,1,106.4,23.24Zm-1.2-.32a.34.34,0,1,1-.51.28A.34.34,0,0,1,105.2,22.92Z"/></g></g></svg>