<svg xmlns="http://www.w3.org/2000/svg" xml:space="preserve" style="enable-background:new 0 0 1096.4 185.4" viewBox="0 0 1096.4 185.4"><path d="M15.8 169.1v-153H128v33.3H55.3v25.5h71.1v33.5H55.3v27.5H128v33.3H15.8zm130.5 0v-153h64.2c48.2 0 82.8 28.9 82.8 76.4s-34.6 76.6-82.6 76.6h-64.4zm39.5-34.4h24.8c26.8 0 42.4-19.5 42.4-42.2 0-23.6-14.2-42-42.2-42h-25v84.2zm132.6-16.8c11 11 28 20.2 48.9 20.2 13.5 0 21.8-5.7 21.8-13.1 0-8.7-9.9-12.2-26.1-15.6-25.2-5-60.6-11.5-60.6-47.7 0-25.7 21.8-47.9 61-47.9 24.5 0 45.9 7.3 62.2 21.3L404 63.3c-12.8-10.6-29.6-15.8-43.1-15.8-13.1 0-18.1 5.3-18.1 11.9 0 8 9.4 10.8 26.4 14 25.2 5.3 60.1 12.6 60.1 47.3 0 30.7-22.7 51.2-63.8 51.2-31 0-52.5-9.6-67.9-24.3l20.8-29.7zm121.3-25.2c0-47.3 35.8-79.1 81.7-79.1 38.1 0 57.8 20.9 67.9 41.1l-33.9 16.1c-5-12.2-18.1-22.3-33.9-22.3-23.9 0-41.5 19.3-41.5 44.3s17.7 44.3 41.5 44.3c15.8 0 28.9-10.1 33.9-22.3l33.9 16.1c-9.9 19.7-29.8 41.1-67.9 41.1-45.9-.2-81.7-32.3-81.7-79.3zm240.6-79.1c46.8 0 81.7 32.6 81.7 79.1 0 46.6-34.9 79.1-81.7 79.1s-81.9-32.6-81.9-79.1c0-46.6 35.1-79.1 81.9-79.1zm0 34.8c-25.5 0-41.7 19.3-41.7 44.3 0 24.8 16.3 44.3 41.7 44.3 25.2 0 41.5-19.5 41.5-44.3 0-25-16.3-44.3-41.5-44.3zM856 13.6c46.8 0 81.7 32.6 81.7 79.1 0 46.6-34.9 79.1-81.7 79.1s-81.9-32.6-81.9-79.1c0-46.6 35.1-79.1 81.9-79.1zm0 34.8c-25.5 0-41.7 19.3-41.7 44.3 0 24.8 16.3 44.3 41.7 44.3 25.2 0 41.5-19.5 41.5-44.3 0-25-16.3-44.3-41.5-44.3zm94.7 120.7v-153h76.6c34.4 0 53.2 23.2 53.2 50.9 0 27.5-18.8 50.2-53.2 50.2h-37.2V169h-39.4zm71.4-119.8h-31.9v34.4h31.9c10.6 0 18.4-6.7 18.4-17-.1-10.5-7.9-17.4-18.4-17.4z"/></svg>